<svg xmlns="http://www.w3.org/2000/svg" xmlns:xlink="http://www.w3.org/1999/xlink" viewBox="0 0 999 479"><defs><style>.a{fill:url(#a);}.b{fill:url(#b);}.c{mask:url(#c);}.d{fill:none;}.e{fill:#22ffef;}.f{fill:url(#d);}</style><linearGradient id="a" x1="1062.38" y1="175.98" x2="1082.97" y2="-153.54" gradientTransform="matrix(-1, 0, 0, 1, 1565, 0)" gradientUnits="userSpaceOnUse"><stop offset="0.06"/><stop offset="0.15" stop-color="#0d0d0d"/><stop offset="0.3" stop-color="#2e2e2e"/><stop offset="0.5" stop-color="#646464"/><stop offset="0.75" stop-color="#aeaeae"/><stop offset="1" stop-color="#fff"/></linearGradient><linearGradient id="b" x1="-169.09" y1="302" x2="-135.29" y2="-238.89" gradientTransform="matrix(-1, 0, 0, 1, 341, 0)" gradientUnits="userSpaceOnUse"><stop offset="0" stop-color="#fff" stop-opacity="0"/><stop offset="0.19" stop-color="#def6f8" stop-opacity="0.18"/><stop offset="0.63" stop-color="#8ce1e5" stop-opacity="0.63"/><stop offset="0.96" stop-color="#49cfd6"/></linearGradient><mask id="c" x="0" y="0" width="999" height="479" maskUnits="userSpaceOnUse"><path class="a" d="M1,200H999L995,4H71A70,70,0,0,0,1,74Z"/></mask><linearGradient id="d" x1="424.86" y1="-83.78" x2="577.27" y2="576.36" gradientUnits="userSpaceOnUse"><stop offset="0" stop-color="#50ffaf"/><stop offset="0.13" stop-color="#50ffaf" stop-opacity="0.99"/><stop offset="0.18" stop-color="#50ffaf" stop-opacity="0.97"/><stop offset="0.22" stop-color="#50ffaf" stop-opacity="0.92"/><stop offset="0.24" stop-color="#50ffaf" stop-opacity="0.85"/><stop offset="0.27" stop-color="#50ffaf" stop-opacity="0.77"/><stop offset="0.29" stop-color="#50ffaf" stop-opacity="0.66"/><stop offset="0.31" stop-color="#50ffaf" stop-opacity="0.53"/><stop offset="0.33" stop-color="#50ffaf" stop-opacity="0.39"/><stop offset="0.34" stop-color="#50ffaf" stop-opacity="0.22"/><stop offset="0.36" stop-color="#50ffaf" stop-opacity="0.04"/><stop offset="0.36" stop-color="#50ffaf" stop-opacity="0"/></linearGradient></defs><title>Asset 2</title><path class="b" d="M0,261H999V4L70,0A70,70,0,0,0,0,70Z"/><g class="c"><polygon class="d" points="977.13 0 475.01 479 481.01 479 983.13 0 977.13 0"/><polygon class="d" points="937.39 0 435.27 479 441.27 479 943.39 0 937.39 0"/><polygon class="d" points="871.16 0 369.04 479 375.04 479 877.16 0 871.16 0"/><polygon class="d" points="963.88 0 461.76 479 467.76 479 969.88 0 963.88 0"/><polygon class="d" points="884.41 0 382.29 479 388.29 479 890.41 0 884.41 0"/><polygon class="d" points="857.91 0 355.79 479 361.8 479 863.92 0 857.91 0"/><polygon class="d" points="950.63 0 448.51 479 454.52 479 956.64 0 950.63 0"/><polygon class="d" points="897.65 0 395.53 479 401.53 479 903.65 0 897.65 0"/><polygon class="d" points="910.9 0 408.78 479 414.78 479 916.9 0 910.9 0"/><polygon class="d" points="999 17.04 514.74 479 520.75 479 999 22.77 999 17.04"/><polygon class="d" points="999 320.3 832.64 479 838.64 479 999 326.02 999 320.3"/><polygon class="d" points="999 244.48 753.16 479 759.17 479 999 250.21 999 244.48"/><polygon class="d" points="999 332.94 845.88 479 851.89 479 999 338.66 999 332.94"/><polygon class="d" points="999 345.57 859.13 479 865.13 479 999 351.3 999 345.57"/><polygon class="d" points="999 282.39 792.9 479 798.9 479 999 288.12 999 282.39"/><polygon class="d" points="999 269.76 779.66 479 785.66 479 999 275.48 999 269.76"/><polygon class="d" points="999 257.12 766.41 479 772.41 479 999 262.85 999 257.12"/><polygon class="d" points="999 295.03 806.15 479 812.15 479 999 300.75 999 295.03"/><polygon class="d" points="999 358.21 872.38 479 878.38 479 999 363.93 999 358.21"/><polygon class="d" points="999 307.66 819.39 479 825.39 479 999 313.39 999 307.66"/><polygon class="d" points="999 446.66 965.1 479 971.1 479 999 452.38 999 446.66"/><polygon class="d" points="999 459.29 978.34 479 984.34 479 999 465.02 999 459.29"/><polygon class="d" points="997.59 479 999 477.65 999 471.93 991.59 479 997.59 479"/><polygon class="d" points="999 434.02 951.85 479 957.85 479 999 439.75 999 434.02"/><polygon class="d" points="999 383.48 898.87 479 904.87 479 999 389.2 999 383.48"/><polygon class="d" points="999 421.39 938.61 479 944.61 479 999 427.11 999 421.39"/><polygon class="d" points="999 396.11 912.11 479 918.12 479 999 401.84 999 396.11"/><polygon class="d" points="999 370.84 885.62 479 891.62 479 999 376.57 999 370.84"/><polygon class="d" points="999 408.75 925.36 479 931.36 479 999 414.48 999 408.75"/><polygon class="d" points="999 4.4 501.5 479 507.5 479 999 10.13 999 4.4"/><polygon class="d" points="999 92.86 594.22 479 600.22 479 999 98.58 999 92.86"/><polygon class="d" points="999 80.22 580.97 479 586.97 479 999 85.94 999 80.22"/><polygon class="d" points="999 118.13 620.71 479 626.71 479 999 123.85 999 118.13"/><polygon class="d" points="999 105.49 607.46 479 613.47 479 999 111.22 999 105.49"/><polygon class="d" points="999 67.58 567.73 479 573.73 479 999 73.31 999 67.58"/><polygon class="d" points="999 29.68 527.99 479 533.99 479 999 35.4 999 29.68"/><polygon class="d" points="990.37 0 488.25 479 494.25 479 996.37 0 990.37 0"/><polygon class="d" points="999 42.31 541.23 479 547.24 479 999 48.04 999 42.31"/><polygon class="d" points="999 54.95 554.48 479 560.48 479 999 60.67 999 54.95"/><polygon class="d" points="999 231.85 739.92 479 745.92 479 999 237.57 999 231.85"/><polygon class="d" points="999 181.31 686.94 479 692.94 479 999 187.03 999 181.31"/><polygon class="d" points="999 193.94 700.18 479 706.18 479 999 199.67 999 193.94"/><polygon class="d" points="999 206.58 713.43 479 719.43 479 999 212.3 999 206.58"/><polygon class="d" points="999 130.76 633.95 479 639.96 479 999 136.49 999 130.76"/><polygon class="d" points="999 219.21 726.67 479 732.68 479 999 224.94 999 219.21"/><polygon class="d" points="999 168.67 673.69 479 679.69 479 999 174.4 999 168.67"/><polygon class="d" points="999 143.4 647.2 479 653.2 479 999 149.12 999 143.4"/><polygon class="d" points="999 156.03 660.45 479 666.45 479 999 161.76 999 156.03"/><polygon class="d" points="924.14 0 422.02 479 428.03 479 930.15 0 924.14 0"/><polygon class="d" points="275.11 0 0 262.44 0 268.16 281.11 0 275.11 0"/><polygon class="d" points="394.32 0 0 376.16 0 381.89 400.32 0 394.32 0"/><polygon class="d" points="381.07 0 0 363.52 0 369.25 387.07 0 381.07 0"/><polygon class="d" points="341.33 0 0 325.62 0 331.34 347.34 0 341.33 0"/><polygon class="d" points="367.82 0 0 350.89 0 356.61 373.83 0 367.82 0"/><polygon class="d" points="328.09 0 0 312.98 0 318.71 334.09 0 328.09 0"/><polygon class="d" points="301.6 0 0 287.71 0 293.44 307.6 0 301.6 0"/><polygon class="d" points="288.35 0 0 275.07 0 280.8 294.35 0 288.35 0"/><polygon class="d" points="526.77 0 24.65 479 30.66 479 532.77 0 526.77 0"/><polygon class="d" points="354.58 0 0 338.25 0 343.98 360.58 0 354.58 0"/><polygon class="d" points="844.67 0 342.55 479 348.55 479 850.67 0 844.67 0"/><polygon class="d" points="500.28 0 0 477.25 0 479 4.16 479 506.28 0 500.28 0"/><polygon class="d" points="487.04 0 0 464.61 0 470.34 493.04 0 487.04 0"/><polygon class="d" points="513.53 0 11.41 479 17.41 479 519.53 0 513.53 0"/><polygon class="d" points="447.3 0 0 426.7 0 432.43 453.3 0 447.3 0"/><polygon class="d" points="434.05 0 0 414.07 0 419.79 440.06 0 434.05 0"/><polygon class="d" points="420.81 0 0 401.43 0 407.16 426.81 0 420.81 0"/><polygon class="d" points="407.56 0 0 388.8 0 394.52 413.56 0 407.56 0"/><polygon class="d" points="460.55 0 0 439.34 0 445.06 466.55 0 460.55 0"/><polygon class="d" points="314.84 0 0 300.35 0 306.07 320.84 0 314.84 0"/><polygon class="d" points="102.91 0 0 98.17 0 103.9 108.91 0 102.91 0"/><polygon class="d" points="116.16 0 0 110.81 0 116.53 122.16 0 116.16 0"/><polygon class="d" points="89.67 0 0 85.54 0 91.26 95.67 0 89.67 0"/><polygon class="d" points="129.4 0 0 123.44 0 129.17 135.41 0 129.4 0"/><polygon class="d" points="76.42 0 0 72.9 0 78.63 82.42 0 76.42 0"/><path class="d" d="M45.16,4.55,5.8,42.1a69.47,69.47,0,0,0-3.1,8.69L54,1.86A69.45,69.45,0,0,0,45.16,4.55Z"/><polygon class="d" points="261.86 0 0 249.8 0 255.53 267.86 0 261.86 0"/><polygon class="d" points="142.65 0 0 136.08 0 141.81 148.65 0 142.65 0"/><path class="d" d="M62.79.37.78,59.52Q.31,62.65.13,65.87L69.15,0C67,0,64.88.15,62.79.37Z"/><path class="d" d="M16,25.46,28.06,14A70.41,70.41,0,0,0,16,25.46Z"/><polygon class="d" points="235.37 0 0 224.53 0 230.26 241.37 0 235.37 0"/><polygon class="d" points="222.12 0 0 211.9 0 217.62 228.13 0 222.12 0"/><polygon class="d" points="208.88 0 0 199.26 0 204.99 214.88 0 208.88 0"/><polygon class="d" points="248.61 0 0 237.17 0 242.89 254.62 0 248.61 0"/><polygon class="d" points="182.38 0 0 173.99 0 179.71 188.39 0 182.38 0"/><polygon class="d" points="169.14 0 0 161.35 0 167.08 175.14 0 169.14 0"/><polygon class="d" points="155.89 0 0 148.72 0 154.44 161.9 0 155.89 0"/><polygon class="d" points="195.63 0 0 186.62 0 192.35 201.63 0 195.63 0"/><polygon class="d" points="473.79 0 0 451.98 0 457.7 479.79 0 473.79 0"/><polygon class="d" points="725.46 0 223.34 479 229.34 479 731.46 0 725.46 0"/><polygon class="d" points="778.44 0 276.32 479 282.32 479 784.44 0 778.44 0"/><polygon class="d" points="685.72 0 183.6 479 189.6 479 691.72 0 685.72 0"/><polygon class="d" points="818.18 0 316.06 479 322.06 479 824.18 0 818.18 0"/><polygon class="d" points="751.95 0 249.83 479 255.83 479 757.95 0 751.95 0"/><polygon class="d" points="619.49 0 117.37 479 123.38 479 625.5 0 619.49 0"/><polygon class="d" points="579.76 0 77.64 479 83.64 479 585.76 0 579.76 0"/><polygon class="d" points="566.51 0 64.39 479 70.39 479 572.51 0 566.51 0"/><polygon class="d" points="765.19 0 263.07 479 269.08 479 771.2 0 765.19 0"/><polygon class="d" points="698.97 0 196.85 479 202.85 479 704.97 0 698.97 0"/><polygon class="d" points="804.93 0 302.81 479 308.81 479 810.93 0 804.93 0"/><polygon class="d" points="540.02 0 37.9 479 43.9 479 546.02 0 540.02 0"/><polygon class="d" points="632.74 0 130.62 479 136.62 479 638.74 0 632.74 0"/><polygon class="d" points="672.48 0 170.35 479 176.36 479 678.48 0 672.48 0"/><polygon class="d" points="831.42 0 329.3 479 335.31 479 837.43 0 831.42 0"/><polygon class="d" points="606.25 0 104.13 479 110.13 479 612.25 0 606.25 0"/><polygon class="d" points="659.23 0 157.11 479 163.11 479 665.23 0 659.23 0"/><polygon class="d" points="791.69 0 289.57 479 295.57 479 797.69 0 791.69 0"/><polygon class="d" points="712.21 0 210.09 479 216.09 479 718.22 0 712.21 0"/><polygon class="d" points="738.7 0 236.58 479 242.59 479 744.71 0 738.7 0"/><polygon class="d" points="593 0 90.88 479 96.88 479 599 0 593 0"/><polygon class="d" points="553.26 0 51.14 479 57.15 479 559.27 0 553.26 0"/><polygon class="d" points="645.98 0 143.86 479 149.87 479 651.99 0 645.98 0"/><polygon class="e" points="999 479 999 477.65 997.59 479 999 479"/><polygon class="e" points="999 452.38 971.1 479 978.34 479 999 459.29 999 452.38"/><polygon class="e" points="999 427.11 944.61 479 951.85 479 999 434.02 999 427.11"/><polygon class="e" points="999 401.84 918.12 479 925.36 479 999 408.75 999 401.84"/><polygon class="e" points="999 471.93 999 465.02 984.34 479 991.59 479 999 471.93"/><polygon class="e" points="999 439.75 957.85 479 965.1 479 999 446.66 999 439.75"/><polygon class="e" points="999 414.48 931.36 479 938.61 479 999 421.39 999 414.48"/><polygon class="e" points="999 389.2 904.87 479 912.11 479 999 396.11 999 389.2"/><polygon class="e" points="999 351.3 865.13 479 872.38 479 999 358.21 999 351.3"/><polygon class="e" points="999 376.57 891.62 479 898.87 479 999 383.48 999 376.57"/><polygon class="e" points="999 326.02 838.64 479 845.88 479 999 332.94 999 326.02"/><polygon class="e" points="999 300.75 812.15 479 819.39 479 999 307.66 999 300.75"/><polygon class="e" points="999 275.48 785.66 479 792.9 479 999 282.39 999 275.48"/><polygon class="e" points="999 338.66 851.89 479 859.13 479 999 345.57 999 338.66"/><polygon class="e" points="999 363.93 878.38 479 885.62 479 999 370.84 999 363.93"/><polygon class="e" points="999 313.39 825.39 479 832.64 479 999 320.3 999 313.39"/><polygon class="e" points="999 288.12 798.9 479 806.15 479 999 295.03 999 288.12"/><polygon class="e" points="999 262.85 772.41 479 779.66 479 999 269.76 999 262.85"/><polygon class="e" points="999 224.94 732.68 479 739.92 479 999 231.85 999 224.94"/><polygon class="e" points="999 250.21 759.17 479 766.41 479 999 257.12 999 250.21"/><polygon class="e" points="999 199.67 706.18 479 713.43 479 999 206.58 999 199.67"/><polygon class="e" points="999 174.4 679.69 479 686.94 479 999 181.31 999 174.4"/><polygon class="e" points="999 149.12 653.2 479 660.45 479 999 156.03 999 149.12"/><polygon class="e" points="999 212.3 719.43 479 726.67 479 999 219.21 999 212.3"/><polygon class="e" points="999 237.57 745.92 479 753.16 479 999 244.48 999 237.57"/><polygon class="e" points="999 187.03 692.94 479 700.18 479 999 193.94 999 187.03"/><polygon class="e" points="999 161.76 666.45 479 673.69 479 999 168.67 999 161.76"/><polygon class="e" points="999 136.49 639.96 479 647.2 479 999 143.4 999 136.49"/><polygon class="e" points="999 98.58 600.22 479 607.46 479 999 105.49 999 98.58"/><polygon class="e" points="999 123.85 626.71 479 633.95 479 999 130.76 999 123.85"/><polygon class="e" points="999 73.31 573.73 479 580.97 479 999 80.22 999 73.31"/><polygon class="e" points="999 48.04 547.24 479 554.48 479 999 54.95 999 48.04"/><polygon class="e" points="999 22.77 520.75 479 527.99 479 999 29.68 999 22.77"/><polygon class="e" points="999 85.94 586.97 479 594.22 479 999 92.86 999 85.94"/><polygon class="e" points="999 111.22 613.47 479 620.71 479 999 118.13 999 111.22"/><polygon class="e" points="999 60.67 560.48 479 567.73 479 999 67.58 999 60.67"/><polygon class="e" points="999 35.4 533.99 479 541.23 479 999 42.31 999 35.4"/><polygon class="e" points="999 10.13 507.5 479 514.74 479 999 17.04 999 10.13"/><polygon class="e" points="969.88 0 467.76 479 475.01 479 977.13 0 969.88 0"/><polygon class="e" points="999 0 996.37 0 494.25 479 501.5 479 999 4.4 999 0"/><polygon class="e" points="943.39 0 441.27 479 448.51 479 950.63 0 943.39 0"/><polygon class="e" points="916.9 0 414.78 479 422.02 479 924.14 0 916.9 0"/><polygon class="e" points="890.41 0 388.29 479 395.53 479 897.65 0 890.41 0"/><polygon class="e" points="956.64 0 454.52 479 461.76 479 963.88 0 956.64 0"/><polygon class="e" points="983.13 0 481.01 479 488.25 479 990.37 0 983.13 0"/><polygon class="e" points="930.15 0 428.03 479 435.27 479 937.39 0 930.15 0"/><polygon class="e" points="903.65 0 401.53 479 408.78 479 910.9 0 903.65 0"/><polygon class="e" points="877.16 0 375.04 479 382.29 479 884.41 0 877.16 0"/><polygon class="e" points="837.43 0 335.31 479 342.55 479 844.67 0 837.43 0"/><polygon class="e" points="863.92 0 361.8 479 369.04 479 871.16 0 863.92 0"/><polygon class="e" points="810.93 0 308.81 479 316.06 479 818.18 0 810.93 0"/><polygon class="e" points="784.44 0 282.32 479 289.57 479 791.69 0 784.44 0"/><polygon class="e" points="757.95 0 255.83 479 263.07 479 765.19 0 757.95 0"/><polygon class="e" points="824.18 0 322.06 479 329.3 479 831.42 0 824.18 0"/><polygon class="e" points="850.67 0 348.55 479 355.79 479 857.91 0 850.67 0"/><polygon class="e" points="797.69 0 295.57 479 302.81 479 804.93 0 797.69 0"/><polygon class="e" points="771.2 0 269.08 479 276.32 479 778.44 0 771.2 0"/><polygon class="e" points="744.71 0 242.59 479 249.83 479 751.95 0 744.71 0"/><polygon class="e" points="704.97 0 202.85 479 210.09 479 712.21 0 704.97 0"/><polygon class="e" points="731.46 0 229.34 479 236.58 479 738.7 0 731.46 0"/><polygon class="e" points="678.48 0 176.36 479 183.6 479 685.72 0 678.48 0"/><polygon class="e" points="651.99 0 149.87 479 157.11 479 659.23 0 651.99 0"/><polygon class="e" points="625.5 0 123.38 479 130.62 479 632.74 0 625.5 0"/><polygon class="e" points="691.72 0 189.6 479 196.85 479 698.97 0 691.72 0"/><polygon class="e" points="718.22 0 216.09 479 223.34 479 725.46 0 718.22 0"/><polygon class="e" points="665.23 0 163.11 479 170.35 479 672.48 0 665.23 0"/><polygon class="e" points="638.74 0 136.62 479 143.86 479 645.98 0 638.74 0"/><polygon class="e" points="612.25 0 110.13 479 117.37 479 619.49 0 612.25 0"/><polygon class="e" points="572.51 0 70.39 479 77.64 479 579.76 0 572.51 0"/><polygon class="e" points="599 0 96.88 479 104.13 479 606.25 0 599 0"/><polygon class="e" points="546.02 0 43.9 479 51.14 479 553.26 0 546.02 0"/><polygon class="e" points="519.53 0 17.41 479 24.65 479 526.77 0 519.53 0"/><polygon class="e" points="493.04 0 0 470.34 0 477.25 500.28 0 493.04 0"/><polygon class="e" points="559.27 0 57.15 479 64.39 479 566.51 0 559.27 0"/><polygon class="e" points="585.76 0 83.64 479 90.88 479 593 0 585.76 0"/><polygon class="e" points="532.77 0 30.66 479 37.9 479 540.02 0 532.77 0"/><polygon class="e" points="506.28 0 4.16 479 11.41 479 513.53 0 506.28 0"/><polygon class="e" points="479.79 0 0 457.7 0 464.61 487.04 0 479.79 0"/><polygon class="e" points="440.06 0 0 419.79 0 426.7 447.3 0 440.06 0"/><polygon class="e" points="466.55 0 0 445.06 0 451.98 473.79 0 466.55 0"/><polygon class="e" points="413.56 0 0 394.52 0 401.43 420.81 0 413.56 0"/><polygon class="e" points="387.07 0 0 369.25 0 376.16 394.32 0 387.07 0"/><polygon class="e" points="360.58 0 0 343.98 0 350.89 367.82 0 360.58 0"/><polygon class="e" points="426.81 0 0 407.16 0 414.07 434.05 0 426.81 0"/><polygon class="e" points="453.3 0 0 432.43 0 439.34 460.55 0 453.3 0"/><polygon class="e" points="400.32 0 0 381.89 0 388.8 407.56 0 400.32 0"/><polygon class="e" points="373.83 0 0 356.61 0 363.52 381.07 0 373.83 0"/><polygon class="e" points="347.34 0 0 331.34 0 338.25 354.58 0 347.34 0"/><polygon class="e" points="307.6 0 0 293.44 0 300.35 314.84 0 307.6 0"/><polygon class="e" points="334.09 0 0 318.71 0 325.62 341.33 0 334.09 0"/><polygon class="e" points="281.11 0 0 268.16 0 275.07 288.35 0 281.11 0"/><polygon class="e" points="254.62 0 0 242.89 0 249.8 261.86 0 254.62 0"/><polygon class="e" points="228.13 0 0 217.62 0 224.53 235.37 0 228.13 0"/><polygon class="e" points="294.35 0 0 280.8 0 287.71 301.6 0 294.35 0"/><polygon class="e" points="320.84 0 0 306.07 0 312.98 328.09 0 320.84 0"/><polygon class="e" points="267.86 0 0 255.53 0 262.44 275.11 0 267.86 0"/><polygon class="e" points="241.37 0 0 230.26 0 237.17 248.61 0 241.37 0"/><polygon class="e" points="214.88 0 0 204.99 0 211.9 222.12 0 214.88 0"/><polygon class="e" points="175.14 0 0 167.08 0 173.99 182.38 0 175.14 0"/><polygon class="e" points="201.63 0 0 192.35 0 199.26 208.88 0 201.63 0"/><polygon class="e" points="148.65 0 0 141.81 0 148.72 155.89 0 148.65 0"/><polygon class="e" points="122.16 0 0 116.53 0 123.44 129.4 0 122.16 0"/><polygon class="e" points="95.67 0 0 91.26 0 98.17 102.91 0 95.67 0"/><polygon class="e" points="161.9 0 0 154.44 0 161.35 169.14 0 161.9 0"/><polygon class="e" points="188.39 0 0 179.71 0 186.62 195.63 0 188.39 0"/><polygon class="e" points="135.41 0 0 129.17 0 136.08 142.65 0 135.41 0"/><polygon class="e" points="108.91 0 0 103.9 0 110.81 116.16 0 108.91 0"/><polygon class="e" points="82.42 0 0 78.63 0 85.54 89.67 0 82.42 0"/><path class="e" d="M28.06,14,16,25.46A70,70,0,0,0,5.8,42.1L45.16,4.55A69.86,69.86,0,0,0,28.06,14Z"/><path class="e" d="M70,0l-.85,0L.13,65.87C.05,67.23,0,68.61,0,70v2.9L76.42,0Z"/><path class="e" d="M54,1.86,2.69,50.79A69.51,69.51,0,0,0,.78,59.52L62.79.37A69.72,69.72,0,0,0,54,1.86Z"/></g><path class="f" d="M994,5V474H5V70A65.07,65.07,0,0,1,70,5H994m5-5H70A70,70,0,0,0,0,70V479H999V0Z"/></svg>